<svg xmlns="http://www.w3.org/2000/svg" width="437.775" height="437.774"><path d="M437.775 150.801c0 110.478-218.893 257.212-218.893 257.212S0 266.569 0 150.801c0-83.217 54.202-121.04 121.041-121.04 30.946 0 59.093 11.7 80.463 30.818l-55.744 80.925a9.077 9.077 0 002.571 12.785l82.958 53.309-38.178 46.08a9.063 9.063 0 00-1.726 8.322l21.359 73.672c1.144 3.955 4.764 6.55 8.709 6.55.703 0 1.425-.089 2.137-.255 4.72-1.135 7.705-5.786 6.789-10.551l-12.975-67.033 54.456-54.725a9.088 9.088 0 002.624-6.966 9.05 9.05 0 00-3.476-6.593l-71.732-55.925 77.963-93.629a9.086 9.086 0 002.033-6.845 9.046 9.046 0 00-1.194-3.552 120.078 120.078 0 0138.633-6.387c66.863 0 121.064 54.201 121.064 121.04z"/></svg>