<svg xmlns="http://www.w3.org/2000/svg" viewBox="0 0 512 512"><path d="M469.835 66.259H42.165C18.914 66.259 0 85.173 0 108.424v295.153c0 23.245 18.914 42.165 42.165 42.165h427.671c23.245 0 42.165-18.92 42.165-42.165V108.424C512 85.173 493.08 66.259 469.835 66.259zm6.024 337.317c0 3.265-2.759 6.024-6.023 6.024H42.165c-3.265 0-6.024-2.759-6.024-6.024V171.761l207.685 122.103a18.07 18.07 0 0018.143.108l213.89-122.543v232.147zm0-273.799l-222.75 127.615L36.141 129.831v-21.408c0-3.265 2.759-6.023 6.024-6.023h427.671c3.265 0 6.023 2.759 6.023 6.023v21.354z"/></svg>